<svg id="Layer_1" data-name="Layer 1" xmlns="http://www.w3.org/2000/svg" viewBox="0 0 400 200"><defs><style>.cls-1{fill:#1d4283;}.cls-2{fill:#4b82bc;}.cls-3{fill:none;}</style></defs><path class="cls-1" d="M228.71,138a4.46,4.46,0,0,1-1,3.14c-.68.73-2,1.1-3.84,1.1s-3.11-.35-3.79-1.05a4.4,4.4,0,0,1-1-3.19,3.42,3.42,0,0,1,.42-1.78,4.83,4.83,0,0,1,.93-1.16,5.39,5.39,0,0,1,1.3-.79c.6-.23,1.25-.45,1.92-.68s1.18-.4,1.84-.65,1.27-.46,1.84-.65a3.45,3.45,0,0,0,.84-.39,1.25,1.25,0,0,0,.57-.85Zm2.43-20c-1.55-1.3-4-1.95-7.29-1.95a15.33,15.33,0,0,0-4.35.54,8.94,8.94,0,0,0-3,1.47,5.62,5.62,0,0,0-1.72,2.17,6.62,6.62,0,0,0-.54,2.66v1.36h4.81a4.19,4.19,0,0,1,1-2.8c.66-.77,1.94-1.16,3.82-1.16a7.52,7.52,0,0,1,2.35.31,4.14,4.14,0,0,1,1.49.82,3,3,0,0,1,.8,1.1,3.49,3.49,0,0,1,.22,1.16v1.08a2.73,2.73,0,0,1-.25,1.18,4.48,4.48,0,0,1-.6.91,2.5,2.5,0,0,1-.7.59l-.6.31c-.15,0-.53.17-1.13.4s-1.31.48-2.12.76l-2.51.87c-.87.31-1.64.57-2.32.8a6,6,0,0,0-3.14,2.48,7.22,7.22,0,0,0-1.1,3.9v2.66a7.58,7.58,0,0,0,.37,2.23,5,5,0,0,0,1.44,2.23,8.41,8.41,0,0,0,2.94,1.7,17.71,17.71,0,0,0,9.72,0,8.41,8.41,0,0,0,2.94-1.7,5.22,5.22,0,0,0,1.44-2.23,7.92,7.92,0,0,0,.37-2.23V122.88a6.12,6.12,0,0,0-2.32-4.89"/><rect class="cls-1" x="240.47" y="105.02" width="4.75" height="40.97"/><path class="cls-1" d="M260.36,116.1a13.81,13.81,0,0,0-5.31.82,7.53,7.53,0,0,0-2.88,2,4.92,4.92,0,0,0-1.19,2.29,10.11,10.11,0,0,0-.23,1.78V146h4.81V123.9a4.42,4.42,0,0,1,.14-1.1,2.38,2.38,0,0,1,.65-1.13,4.33,4.33,0,0,1,1.44-.94,6.46,6.46,0,0,1,2.46-.39c.41,0,.77,0,1.07,0s.68,0,1.13,0l1.07-4.13a8.52,8.52,0,0,0-1.49-.08c-.48,0-1,0-1.67,0"/><path class="cls-1" d="M281.38,138a4.46,4.46,0,0,1-1,3.14c-.67.73-1.95,1.1-3.84,1.1s-3.11-.35-3.79-1.05a4.44,4.44,0,0,1-1-3.19,3.42,3.42,0,0,1,.42-1.78,4.83,4.83,0,0,1,.93-1.16,5.39,5.39,0,0,1,1.3-.79c.61-.23,1.25-.45,1.93-.68s1.17-.4,1.83-.65,1.27-.46,1.84-.65a3.68,3.68,0,0,0,.85-.39,1.24,1.24,0,0,0,.56-.85Zm2.43-20q-2.31-2-7.29-1.95a15.33,15.33,0,0,0-4.35.54,8.89,8.89,0,0,0-3,1.47,5.56,5.56,0,0,0-1.73,2.17,6.62,6.62,0,0,0-.54,2.66v1.36h4.81a4.15,4.15,0,0,1,1-2.8c.66-.77,1.93-1.16,3.81-1.16a7.47,7.47,0,0,1,2.35.31,4.14,4.14,0,0,1,1.49.82,2.9,2.9,0,0,1,.8,1.1,3.26,3.26,0,0,1,.22,1.16v1.08a2.59,2.59,0,0,1-.25,1.18,4.48,4.48,0,0,1-.6.91,2.5,2.5,0,0,1-.7.59l-.6.31c-.15,0-.52.17-1.13.4s-1.31.48-2.12.76l-2.51.87c-.87.31-1.64.57-2.32.8a6,6,0,0,0-3.13,2.48,7.15,7.15,0,0,0-1.11,3.9v2.66a7.92,7.92,0,0,0,.37,2.23,5.22,5.22,0,0,0,1.44,2.23,8.41,8.41,0,0,0,2.94,1.7,17.71,17.71,0,0,0,9.72,0,8.32,8.32,0,0,0,2.94-1.7,5,5,0,0,0,1.44-2.23,7.58,7.58,0,0,0,.37-2.23V122.88a6.12,6.12,0,0,0-2.32-4.89"/><path class="cls-1" d="M306.14,124.29v.51a3,3,0,0,1-1,2.24,3.14,3.14,0,0,1-2.26.93h-3.22c-.19,0-.45,0-.79.05a5.35,5.35,0,0,0-1,.23,2.88,2.88,0,0,0-.9.48,1.44,1.44,0,0,0-.51.82v-5.88a3.93,3.93,0,0,1,.17-1,2.51,2.51,0,0,1,.71-1.11,4.35,4.35,0,0,1,1.52-.87,7.4,7.4,0,0,1,2.57-.37,6.71,6.71,0,0,1,2.46.37,3.79,3.79,0,0,1,1.44.9,2.6,2.6,0,0,1,.66,1.13,5.1,5.1,0,0,1,.14,1.1Zm3.39-5.48a7.81,7.81,0,0,0-2.88-2,17.64,17.64,0,0,0-10.63,0,7.73,7.73,0,0,0-2.88,2,5.07,5.07,0,0,0-1.19,2.26,10,10,0,0,0-.23,1.81v16.73a5.62,5.62,0,0,0,1,3.39,8.52,8.52,0,0,0,1.13,1.24,6.61,6.61,0,0,0,1.73,1.11,12.27,12.27,0,0,0,2.46.79,16.12,16.12,0,0,0,3.33.31,15.24,15.24,0,0,0,4.3-.51,9.3,9.3,0,0,0,2.65-1.19,6,6,0,0,0,2-2.26,6.25,6.25,0,0,0,.65-2.82v-1.36h-4.8a5,5,0,0,1-.29,1.7,2.86,2.86,0,0,1-1,1.35,6.74,6.74,0,0,1-1.19.54,6.87,6.87,0,0,1-2.32.31,8.24,8.24,0,0,1-1.83-.17,5.17,5.17,0,0,1-1.16-.4,2.64,2.64,0,0,1-.85-.5,3.27,3.27,0,0,1-.51-.68,4,4,0,0,1-.51-2.15v-2.54a3.54,3.54,0,0,1,1.13-2.66,3.65,3.65,0,0,1,2.6-1.07h4.3a5.18,5.18,0,0,0,1.52-.23,9.48,9.48,0,0,0,1.41-.51,4,4,0,0,0,1.42-1,6.48,6.48,0,0,0,1.72-2.54,7.14,7.14,0,0,0,.37-2.15v-2.71a10.22,10.22,0,0,0-.23-1.78,5,5,0,0,0-1.18-2.29"/><path class="cls-1" d="M329.87,126.55v12.27a3.41,3.41,0,0,1-.22,1.18,2.92,2.92,0,0,1-.77,1.14,3.79,3.79,0,0,1-1.47.81,7.38,7.38,0,0,1-2.34.32,7.18,7.18,0,0,1-2.29-.32,4,4,0,0,1-1.47-.81,3.14,3.14,0,0,1-.79-1.19,4.8,4.8,0,0,1-.31-1.42v-12a3.47,3.47,0,0,1,.42-1.78,5.31,5.31,0,0,1,.93-1.16,4.79,4.79,0,0,1,1.3-.84c.61-.23,1.25-.45,1.93-.68l1.83-.62c.66-.23,1.27-.44,1.84-.62a2.84,2.84,0,0,0,.87-.4,1.27,1.27,0,0,0,.54-.9Zm0-14.29v1.07a2.64,2.64,0,0,1-.25,1.19,4.41,4.41,0,0,1-.6.9,2.5,2.5,0,0,1-.7.59l-.59.31c-.16,0-.53.17-1.13.4l-2.1.76-2.48.88-2.32.79a6,6,0,0,0-3.19,2.49,7.12,7.12,0,0,0-1.11,3.9v1.3h.06v11.47h-.06v1.36a6.58,6.58,0,0,0,.54,2.65,5.58,5.58,0,0,0,1.72,2.18,9.11,9.11,0,0,0,3,1.47,15.63,15.63,0,0,0,4.38.53q4.92,0,7.23-1.95a6.29,6.29,0,0,0,2.38-4.88V105h-4.81Z"/><path class="cls-1" d="M354.68,138a4.51,4.51,0,0,1-1,3.14c-.68.73-2,1.1-3.85,1.1s-3.11-.35-3.78-1.05a4.4,4.4,0,0,1-1-3.19,3.42,3.42,0,0,1,.42-1.78,4.85,4.85,0,0,1,.94-1.16,5.15,5.15,0,0,1,1.29-.79c.61-.23,1.25-.45,1.93-.68s1.17-.4,1.83-.65l1.84-.65a3.68,3.68,0,0,0,.85-.39,1.24,1.24,0,0,0,.56-.85Zm2.43-20q-2.31-2-7.29-1.95a15.38,15.38,0,0,0-4.35.54,8.89,8.89,0,0,0-3,1.47,5.56,5.56,0,0,0-1.73,2.17,6.62,6.62,0,0,0-.53,2.66v1.36H345a4.15,4.15,0,0,1,1-2.8c.66-.77,1.93-1.16,3.81-1.16a7.47,7.47,0,0,1,2.35.31,4.28,4.28,0,0,1,1.5.82,3,3,0,0,1,.79,1.1,3.26,3.26,0,0,1,.22,1.16v1.08a2.59,2.59,0,0,1-.25,1.18,4.91,4.91,0,0,1-.59.91,2.68,2.68,0,0,1-.71.59l-.59.31c-.16,0-.53.17-1.13.4l-2.12.76-2.52.87c-.87.31-1.64.57-2.32.8a6,6,0,0,0-3.13,2.48,7.14,7.14,0,0,0-1.1,3.9v2.66a7.88,7.88,0,0,0,.36,2.23,5.22,5.22,0,0,0,1.44,2.23,8.41,8.41,0,0,0,2.94,1.7,17.71,17.71,0,0,0,9.72,0,8.23,8.23,0,0,0,2.94-1.7,5,5,0,0,0,1.44-2.23,7.58,7.58,0,0,0,.37-2.23V122.88a6.12,6.12,0,0,0-2.32-4.89"/><path class="cls-1" d="M383.08,121.58a6,6,0,0,0-3.13-2.49l-2.35-.79-2.52-.87-2.09-.77c-.6-.22-1-.35-1.13-.39l-.59-.31a2.58,2.58,0,0,1-.71-.6,4.52,4.52,0,0,1-.59-.9,2.64,2.64,0,0,1-.25-1.19V105H365v41h4.75V119.49a1.24,1.24,0,0,0,.56.9,3.4,3.4,0,0,0,.85.4c.6.19,1.22.39,1.86.62s1.25.43,1.81.62,1.32.45,1.92.68a4.36,4.36,0,0,1,1.36.85,4.32,4.32,0,0,1,.9,1.16,3.53,3.53,0,0,1,.4,1.78V146h4.8V125.48a7.14,7.14,0,0,0-1.1-3.9"/><rect class="cls-1" x="379.42" y="53.5" width="4.75" height="40.97"/><rect class="cls-1" x="307.92" y="53.5" width="4.75" height="40.97"/><path class="cls-1" d="M365,86.73a5,5,0,0,1-.14,1.1,2.62,2.62,0,0,1-.65,1.13,3.87,3.87,0,0,1-1.44.9,6.78,6.78,0,0,1-2.46.37H333.27a6.71,6.71,0,0,1-2.46-.37,3.87,3.87,0,0,1-1.44-.9,2.43,2.43,0,0,1-.65-1.13,4.42,4.42,0,0,1-.14-1.1V64.52h-4.81V98.31a4.19,4.19,0,0,1-.16,1.11,2.53,2.53,0,0,1-.71,1.1,4.43,4.43,0,0,1-1.5.87,7.35,7.35,0,0,1-2.6.37l.11,4.24a13.86,13.86,0,0,0,5.32-.82,7.73,7.73,0,0,0,2.88-2A5,5,0,0,0,328.3,101a10.62,10.62,0,0,0,.22-1.81V93.81a14.46,14.46,0,0,0,4.6.65h27.09a13.9,13.9,0,0,0,5.32-.82,7.61,7.61,0,0,0,2.88-2,5.17,5.17,0,0,0,1.19-2.29,9.91,9.91,0,0,0,.22-1.78V53.5H365Z"/><path class="cls-1" d="M291.58,86.73a4.42,4.42,0,0,1-.14,1.1,2.43,2.43,0,0,1-.65,1.13,3.87,3.87,0,0,1-1.44.9,6.68,6.68,0,0,1-2.45.37H258.76a2.35,2.35,0,0,0,.14-.37,7.58,7.58,0,0,0,.37-2.23V70.9a6.58,6.58,0,0,0-.54-2.65A5.49,5.49,0,0,0,257,66.07a9,9,0,0,0-3-1.47,15.43,15.43,0,0,0-4.36-.53c-3.35,0-5.79.64-7.31,2a6.14,6.14,0,0,0-2.29,4.88v1.36h4.74V71.7a3.24,3.24,0,0,1,.23-1.16,2.82,2.82,0,0,1,.79-1.11,4,4,0,0,1,1.5-.81,7.38,7.38,0,0,1,2.34-.32c1.89,0,3.16.39,3.82,1.16a4.17,4.17,0,0,1,1,2.8V86a4.42,4.42,0,0,1-1,3.2c-.68.69-1.94,1-3.79,1L239,90.12v4.35h47.74a13.9,13.9,0,0,0,5.32-.82,7.69,7.69,0,0,0,2.88-2,5,5,0,0,0,1.18-2.29,10.11,10.11,0,0,0,.23-1.78V64.48h-4.81Z"/><path class="cls-1" d="M293.7,59.45a.89.89,0,0,1-.15-.6v-2a.72.72,0,0,1,.17-.5s.14-.15.76-.15a1.55,1.55,0,0,1,.56.07.68.68,0,0,1,.27.13.47.47,0,0,1,.09.12.4.4,0,0,1,0,.15v.81h2.8V56.46a2.61,2.61,0,0,0-1-2.06,4.12,4.12,0,0,0-2.78-.79,5.7,5.7,0,0,0-1.59.2,3.58,3.58,0,0,0-1.19.59,2.59,2.59,0,0,0-.74,1,2.79,2.79,0,0,0-.23,1.11v2.92a1.64,1.64,0,0,0,0,.22h-1.49v.63h0v.62h0l0,.75h0v.63h9.26V59.55l-4.08.05a1.34,1.34,0,0,1-.78-.15"/><path class="cls-1" d="M228.67,87a4.06,4.06,0,0,1-.16,1.1,2.51,2.51,0,0,1-.71,1.11,4.6,4.6,0,0,1-1.5.87,7.32,7.32,0,0,1-2.6.37,6.74,6.74,0,0,1-2.46-.37,3.87,3.87,0,0,1-1.44-.9,2.56,2.56,0,0,1-.65-1.16A5.24,5.24,0,0,1,219,87V72a5.24,5.24,0,0,1,.14-1.07,2.56,2.56,0,0,1,.65-1.16,3.87,3.87,0,0,1,1.44-.9,6.74,6.74,0,0,1,2.46-.37,7.32,7.32,0,0,1,2.6.37,4.43,4.43,0,0,1,1.5.87,2.53,2.53,0,0,1,.71,1.1,4.19,4.19,0,0,1,.16,1.11Zm3.4-20a7.77,7.77,0,0,0-2.89-2,17.6,17.6,0,0,0-10.62,0,7.73,7.73,0,0,0-2.88,2,5.07,5.07,0,0,0-1.19,2.29,10.22,10.22,0,0,0-.23,1.78V87.86a10.22,10.22,0,0,0,.23,1.78,5.12,5.12,0,0,0,1.19,2.29,7.73,7.73,0,0,0,2.88,1.95,17.6,17.6,0,0,0,10.62,0,7.77,7.77,0,0,0,2.89-1.95,5.1,5.1,0,0,0,1.18-2.26,10,10,0,0,0,.23-1.81V71.13a10,10,0,0,0-.23-1.81,5,5,0,0,0-1.18-2.26"/><rect class="cls-1" x="225.23" y="56.1" width="4.8" height="5.71"/><rect class="cls-1" x="217.65" y="56.1" width="4.81" height="5.71"/><path class="cls-1" d="M137.29,100.74c0-.24,0-.48,0-.73s0-.49,0-.73l.09-.91a12.13,12.13,0,0,1,12-10.49h.19a12.13,12.13,0,1,0-12.32-12.13,12.14,12.14,0,0,1-24.27,0,12.14,12.14,0,0,0-24.27,0v0a12.13,12.13,0,0,1-24.26,0A12.14,12.14,0,1,0,52.13,87.87h.19a12.12,12.12,0,0,1,12,10.49l.09.9c0,.24,0,.48,0,.72v0c0,.12,0,.23,0,.35h0V100c0,.25,0,.49,0,.73l-.08.91a12.14,12.14,0,0,1-12,10.49h-.19a12.13,12.13,0,1,0,12.33,12.12,12.13,12.13,0,1,1,24.26,0,12.14,12.14,0,1,0,12.33-12.13h-.19a12.12,12.12,0,0,1-12-10.49l-.09-.91c0-.24,0-.48,0-.73v.35h0c0-.12,0-.24,0-.35h0c0-.24,0-.49,0-.73l.09-.9a12.12,12.12,0,0,1,24,0l.08.9c0,.24,0,.48,0,.73h0s0,.09,0,.14c0,.36,0,.73,0,1.09,0,.19.06.38.09.56s0,.43.09.63.12.45.17.67.08.33.13.49.17.48.26.71.09.27.14.4.24.5.36.76c0,.09.09.19.14.28.15.27.31.53.47.79,0,.07.08.14.13.2.19.28.39.56.6.82l.08.11c.23.28.48.55.73.81l0,0a12.1,12.1,0,0,0,8.43,3.62h.22a12.13,12.13,0,0,1,12.14,12.13,12.14,12.14,0,1,0,12.32-12.12h-.19a12.13,12.13,0,0,1-12-10.49ZM64.46,99.66h0c0,.1,0,.21,0,.31Zm24.26.33a1,1,0,0,0,0-.17v-.16h0Zm48.52.37c0-.11,0-.21,0-.32v.31Zm0-.35Zm0,0v0c0-.11,0-.22,0-.33h0ZM113,99.66h0a2,2,0,0,0,0,.25s0,0,0,.08Z"/><path class="cls-2" d="M85.24,60A12.18,12.18,0,1,0,68,60a12.19,12.19,0,0,0,17.23,0"/><path class="cls-1" d="M109.47,35.65a12.18,12.18,0,1,0-17.23,0,12.18,12.18,0,0,0,17.23,0"/><path class="cls-2" d="M116.72,42.81a12.19,12.19,0,1,0,17.23,0,12.18,12.18,0,0,0-17.23,0"/><path class="cls-2" d="M165.09,91.14a12.19,12.19,0,1,0,17.24,0,12.2,12.2,0,0,0-17.24,0"/><path class="cls-2" d="M116.66,140a12.18,12.18,0,1,0,17.23,0,12.17,12.17,0,0,0-17.23,0"/><path class="cls-1" d="M92.24,164.35a12.18,12.18,0,1,0,17.23,0,12.18,12.18,0,0,0-17.23,0"/><path class="cls-2" d="M36.62,108.37a12.18,12.18,0,1,0-17.23,0,12.18,12.18,0,0,0,17.23,0"/><path class="cls-2" d="M68,140a12.18,12.18,0,1,0,17.23,0A12.18,12.18,0,0,0,68,140"/><rect class="cls-3" x="-395.28" y="-320.95" width="1190.55" height="841.89"/></svg>