<svg xmlns="http://www.w3.org/2000/svg" width="54.682" height="45.485" viewBox="0 0 20.592 20.592">
	<path id="prefix__Path_40" d="M10.3 1.83a31.57 31.57 0 014.118.114 5.306 5.306 0 011.945.343A4.018 4.018 0 0118.3 4.233a5.306 5.306 0 01.343 1.945c0 1.03.114 1.373.114 4.118a31.569 31.569 0 01-.114 4.118 5.306 5.306 0 01-.343 1.945 4.018 4.018 0 01-1.941 1.941 5.306 5.306 0 01-1.945.343c-1.03 0-1.373.114-4.118.114a31.569 31.569 0 01-4.118-.114 5.306 5.306 0 01-1.945-.343 4.018 4.018 0 01-1.945-1.945 5.306 5.306 0 01-.343-1.945c0-1.03-.114-1.373-.114-4.118a31.569 31.569 0 01.114-4.118 5.306 5.306 0 01.343-1.945 4.109 4.109 0 01.8-1.144 1.934 1.934 0 011.144-.8 5.306 5.306 0 011.945-.343A31.569 31.569 0 0110.3 1.83m0-1.83a33.8 33.8 0 00-4.237.114 7.063 7.063 0 00-2.517.458 4.478 4.478 0 00-1.83 1.144 4.478 4.478 0 00-1.144 1.83 5.212 5.212 0 00-.458 2.517A33.8 33.8 0 000 10.3a33.8 33.8 0 00.114 4.233 7.063 7.063 0 00.458 2.517 4.478 4.478 0 001.144 1.83 4.478 4.478 0 001.83 1.144 7.063 7.063 0 002.517.458 33.8 33.8 0 004.233.114 33.8 33.8 0 004.233-.114 7.063 7.063 0 002.517-.458 4.8 4.8 0 002.974-2.974 7.063 7.063 0 00.458-2.517c0-1.144.114-1.487.114-4.233a33.8 33.8 0 00-.114-4.233 7.063 7.063 0 00-.458-2.517 4.478 4.478 0 00-1.144-1.83A4.478 4.478 0 0017.045.572a7.063 7.063 0 00-2.516-.458A33.8 33.8 0 0010.3 0m0 5.034A5.178 5.178 0 005.034 10.3 5.262 5.262 0 1010.3 5.034m0 8.694A3.371 3.371 0 016.864 10.3 3.371 3.371 0 0110.3 6.864a3.371 3.371 0 013.428 3.436 3.371 3.371 0 01-3.428 3.428m5.487-10.182A1.258 1.258 0 1017.045 4.8a1.27 1.27 0 00-1.258-1.258" data-name="Path 40" style="fill:#1d428a;fill-rule:evenodd"/>
</svg>
