<svg xmlns="http://www.w3.org/2000/svg" width="54.682" height="45.485" viewBox="0 0 54.682 45.485">
	<path id="prefix__twitter" d="M53.813 39.782a21.653 21.653 0 01-3.77 1.271 11.756 11.756 0 003.1-4.942.616.616 0 00-.9-.718 21.756 21.756 0 01-5.764 2.381 1.469 1.469 0 01-.36.045 1.528 1.528 0 01-1.009-.385 11.789 11.789 0 00-7.8-2.944 12.6 12.6 0 00-3.735.577 11.421 11.421 0 00-7.7 8.229 12.576 12.576 0 00-.28 4.341.422.422 0 01-.106.331.437.437 0 01-.325.147h-.042A30.912 30.912 0 013.878 36.763a.616.616 0 00-1.01.079 11.8 11.8 0 001.918 14.33A10.565 10.565 0 012.1 50.131a.616.616 0 00-.916.531 11.8 11.8 0 006.883 10.875h-.252a10.608 10.608 0 01-1.986-.189.616.616 0 00-.7.794 11.815 11.815 0 009.333 8.036 21.754 21.754 0 01-12.184 3.7H.911a.9.9 0 00-.882.681.934.934 0 00.447 1.032 32.357 32.357 0 0016.259 4.384 32.8 32.8 0 0013.895-2.946 30.683 30.683 0 0010.17-7.618 33.4 33.4 0 006.225-10.426 32.935 32.935 0 002.116-11.411v-.179a2.006 2.006 0 01.751-1.561 23.3 23.3 0 004.688-5.145.616.616 0 00-.762-.906z" transform="translate(0 -34.491)" style="fill:#1d428a"/>
</svg>
