<svg xmlns="http://www.w3.org/2000/svg" id="prefix__linkedin" width="45.82" height="45.835" viewBox="0 0 45.82 45.835">
	<defs>
		<style>
			.prefix__cls-1{fill:#1d428a}
		</style>
	</defs>
	<path id="prefix__Path_6113" d="M28.307 39.375h8.9a1.433 1.433 0 001.432-1.432C37.971 22.935 42.157 7.1 26.535 7.1a11.364 11.364 0 00-7.122 2.382c0-2.79-3.016-1.247-9.977-1.662A1.433 1.433 0 008 9.253c.577 27.054-1.287 30.119 1.432 30.119h8.9c2.584 0 .94-3.644 1.432-15.637 0-4.954 1.432-5.924 3.907-5.924 2.739 0 3.2 1.9 3.2 6.165.495 11.778-1.138 15.399 1.436 15.399z" class="prefix__cls-1" data-name="Path 6113" transform="translate(7.138 6.46)"/>
	<path id="prefix__Path_6114" d="M1.848 7.5C-.864 7.5.992 10.532.416 37.624a1.433 1.433 0 001.432 1.432h8.909c2.712 0 .856-3.027 1.432-30.119C12.19 6.464 8.6 7.923 1.848 7.5z" class="prefix__cls-1" data-name="Path 6114" transform="translate(.237 6.778)"/>
	<path id="prefix__Path_6115" d="M6.565 0c-8.739 0-8.686 13.233 0 13.233S15.314 0 6.565 0zm0 10.368z" class="prefix__cls-1" data-name="Path 6115" transform="translate(-.03)"/>
</svg>
