<svg xmlns="http://www.w3.org/2000/svg" width="20.592" height="16.702" viewBox="0 0 20.592 16.702">
    <path id="prefix__Path_39" d="M44.521 18.7A11.905 11.905 0 0056.533 6.69v-.572a9.3 9.3 0 002.059-2.174 9.5 9.5 0 01-2.4.686 4.451 4.451 0 001.83-2.288 10.493 10.493 0 01-2.631 1.03A4.086 4.086 0 0052.3 2a4.3 4.3 0 00-4.233 4.233 2.23 2.23 0 00.114.915 11.828 11.828 0 01-8.694-4.462 4.381 4.381 0 00-.572 2.174 4.545 4.545 0 001.83 3.546 3.857 3.857 0 01-1.945-.572 4.181 4.181 0 003.432 4.118 3.527 3.527 0 01-1.144.114 1.947 1.947 0 01-.8-.114 4.334 4.334 0 004 2.974 8.637 8.637 0 01-5.262 1.83A3.167 3.167 0 0138 16.643a10.8 10.8 0 006.521 2.057" data-name="Path 39" transform="translate(-38 -2)" style="fill:#fff;fill-rule:evenodd"/>
</svg>
